<svg width="64" height="64" viewBox="0 0 64 64" fill="none" xmlns="http://www.w3.org/2000/svg">
<rect width="64" height="64" fill="black"/>
<path d="M23.6265 23.3878L20.8461 33.4641L20.3508 33.5941L16.8172 25.1755C17.1027 30.9675 17.2563 33.9048 17.278 33.9873C17.2969 34.0595 17.3632 34.0808 17.4766 34.051L18.1576 33.8722L18.1843 34.1629L15.8784 34.7683L15.8517 34.4776L16.5636 34.2907C16.6977 34.2555 16.7599 34.1564 16.7503 33.9935C16.4498 27.8084 16.2928 24.6901 16.2792 24.6385C16.263 24.5766 16.1981 24.5605 16.0846 24.5903L15.4037 24.7691L15.377 24.4784L17.4817 23.9258L20.8201 31.916L23.4243 22.3656L25.529 21.8131L25.5557 22.1038L24.8593 22.2866C24.7252 22.3218 24.6564 22.4171 24.6531 22.5724C24.6896 23.2576 24.7502 24.4547 24.835 26.1639C25.0006 29.9031 25.0956 31.8191 25.12 31.9119C25.1417 31.9945 25.2093 32.0208 25.3227 31.991L26.0037 31.8123L26.0304 32.103L23.1829 32.8506L23.1562 32.5599L23.868 32.373C24.0022 32.3377 24.0644 32.2387 24.0547 32.0758L23.6265 23.3878ZM28.1529 21.1242L32.0992 20.0881C32.873 19.885 33.4127 19.6936 33.7185 19.5141C33.6656 19.8588 33.6598 20.5717 33.701 21.6526L33.7372 22.4206L33.3967 22.51L33.0753 20.5928C33.0266 20.4071 32.8835 20.3454 32.6463 20.4077L30.6654 20.9277C30.9637 27.1465 31.1223 30.292 31.1412 30.3642C31.1575 30.4261 31.2224 30.4422 31.3358 30.4124L32.6667 30.063L32.6934 30.3537L28.546 31.4426L28.5193 31.1518L29.8811 30.7943C30.0153 30.7591 30.0775 30.66 30.0678 30.4971L29.613 21.204L27.6477 21.72C27.4 21.785 27.2699 21.9405 27.2573 22.1864L27.1291 24.1555L26.7887 24.2449L26.7525 23.4769C26.7128 22.5279 26.6361 21.8367 26.5224 21.4034C26.8459 21.4177 27.3895 21.3246 28.1529 21.1242ZM42.8198 18.3488L40.0394 28.4251L39.5442 28.5551L36.0105 20.1365C36.296 25.9285 36.4496 28.8658 36.4713 28.9483C36.4902 29.0205 36.5565 29.0417 36.6699 29.0119L37.3509 28.8332L37.3776 29.1239L35.0717 29.7293L35.045 29.4386L35.7569 29.2517C35.891 29.2165 35.9532 29.1174 35.9436 28.9545C35.6431 22.7694 35.4861 19.6511 35.4725 19.5995C35.4563 19.5376 35.3914 19.5215 35.2779 19.5513L34.597 19.7301L34.5703 19.4393L36.675 18.8868L40.0134 26.877L42.6176 17.3266L44.7223 16.774L44.749 17.0648L44.0526 17.2476C43.9185 17.2828 43.8497 17.3781 43.8464 17.5334C43.8829 18.2185 43.9436 19.4157 44.0283 21.1249C44.1939 24.8641 44.2889 26.7801 44.3133 26.8729C44.335 26.9555 44.4026 26.9818 44.516 26.952L45.197 26.7733L45.2237 27.064L42.3762 27.8116L42.3495 27.5208L43.0613 27.334C43.1955 27.2987 43.2577 27.1997 43.248 27.0368L42.8198 18.3488ZM26.1393 35.6227L26.5982 44.9313C26.6252 45.0345 26.6955 45.0712 26.809 45.0414L27.4899 44.8626L27.5166 45.1534L24.6691 45.901L24.6424 45.6102L25.3543 45.4233C25.4884 45.3881 25.5507 45.2891 25.541 45.1262C25.2405 38.9411 25.0835 35.8227 25.07 35.7711C25.0537 35.7092 24.9889 35.6932 24.8754 35.723L24.1944 35.9017L24.1677 35.611L27.0152 34.8634L27.0419 35.1542L26.3455 35.337C26.2114 35.3722 26.1427 35.4674 26.1393 35.6227ZM30.071 41.5879L30.4757 43.0035C30.6643 43.6377 30.9185 43.9129 31.2383 43.8289C31.4447 43.7747 31.5864 43.6217 31.6637 43.3698C31.7512 43.1153 31.7503 42.8177 31.6609 42.4773L31.9428 42.3537C32.0809 42.8798 32.0513 43.3342 31.854 43.7169C31.6671 44.0968 31.3672 44.341 30.9545 44.4493C30.222 44.6416 29.6902 44.1912 29.3591 43.0981L28.8991 41.5978C28.6921 40.9353 28.4309 40.5076 28.1156 40.3147C27.7975 40.1114 27.3548 40.0843 26.7874 40.2333L26.7997 39.9654L30.0442 34.3659L29.3169 34.5569L29.2901 34.2662L31.2865 33.742L31.3132 34.0328L30.9108 34.1384C30.7458 34.1818 30.6151 34.2933 30.5189 34.4729L27.4261 39.7678C28.1716 39.5831 28.7444 39.6644 29.1443 40.0115C29.5546 40.356 29.8634 40.8814 30.071 41.5879ZM34.9752 32.7736L40.1067 39.7802C39.8539 34.5751 39.7222 31.9519 39.7113 31.9106C39.6978 31.8591 39.6343 31.8482 39.5208 31.878L38.8399 32.0567L38.8132 31.766L41.1035 31.1647L41.1303 31.4554L40.4339 31.6382C40.2997 31.6735 40.231 31.7687 40.2276 31.924L40.7074 41.6903L40.2431 41.8122L34.2369 33.6788C34.5358 39.7319 34.6947 42.7946 34.7137 42.8669C34.7299 42.9288 34.7948 42.9448 34.9083 42.915L35.5892 42.7362L35.6159 43.027L33.3101 43.6324L33.2834 43.3416L33.9952 43.1547C34.1294 43.1195 34.1916 43.0205 34.1819 42.8576C33.8814 36.6725 33.7244 33.5541 33.7109 33.5025C33.6946 33.4406 33.6298 33.4246 33.5163 33.4544L32.8354 33.6332L32.8087 33.3424L34.9752 32.7736ZM45.9818 40.504C45.2493 40.6964 44.5557 40.6799 43.9011 40.4548C43.6856 40.3901 43.5417 40.3672 43.4695 40.3861C43.2838 40.4349 43.2125 40.6466 43.2558 41.0212L42.9617 41.0984L42.8249 38.3718L43.1034 38.2987C43.1148 38.3839 43.1421 38.5091 43.1855 38.6742C43.3615 39.3448 43.6824 39.7899 44.1481 40.0095C44.6214 40.2161 45.1934 40.2313 45.864 40.0553C46.5449 39.8765 47.05 39.4902 47.3794 38.8965C47.7163 38.2897 47.8036 37.6768 47.641 37.0577C47.4758 36.4284 47.0327 36.0429 46.3118 35.9014L44.9072 35.5919C43.8128 35.3719 43.1342 34.7616 42.8715 33.7608C42.6656 32.9767 42.7858 32.1953 43.232 31.4164C43.6755 30.6273 44.3563 30.1122 45.2745 29.8711C45.8832 29.7113 46.4799 29.7366 47.0645 29.9471C47.2594 30.0172 47.3877 30.0442 47.4497 30.0279C47.5528 30.0008 47.6121 29.8695 47.6274 29.6339L47.6357 29.3505L47.9143 29.2773L48.0446 32.1049L47.7815 32.174C47.748 31.9622 47.719 31.8099 47.6946 31.7171C47.5267 31.0774 47.2384 30.6513 46.8297 30.4388C46.4286 30.2133 45.9237 30.1804 45.315 30.3402C44.7063 30.5 44.2449 30.8638 43.9307 31.4315C43.6269 31.9965 43.5495 32.5627 43.6985 33.1302C43.8826 33.8317 44.3327 34.265 45.0488 34.4299L46.8581 34.8316C47.8309 35.0504 48.4242 35.5673 48.6382 36.3824C48.8495 37.1871 48.6924 38.0169 48.1669 38.8717C47.6387 39.7161 46.9103 40.2603 45.9818 40.504Z" fill="url(#paint0_linear)"/>
<defs>
<linearGradient id="paint0_linear" x1="46.9655" y1="26.6067" x2="-2.24187" y2="39.5256" gradientUnits="userSpaceOnUse">
<stop stop-color="white"/>
<stop offset="1" stop-color="white" stop-opacity="0"/>
</linearGradient>
</defs>
</svg>
