<svg id="Layer_1" data-name="Layer 1" xmlns="http://www.w3.org/2000/svg" viewBox="0 0 28 28"><defs><style>.cls-1{fill:#1b2126;fill-rule:evenodd;}</style></defs><title>SQ</title><g id="Page-1"><g id="SQ"><g id="Group"><path id="Fill-1" class="cls-1" d="M22.91,21.43a1.48,1.48,0,0,1-1.48,1.48H6.57a1.48,1.48,0,0,1-1.48-1.48V6.57A1.48,1.48,0,0,1,6.57,5.09H21.43a1.48,1.48,0,0,1,1.48,1.48ZM23.32,0H4.68A4.69,4.69,0,0,0,0,4.68V23.32A4.69,4.69,0,0,0,4.68,28H23.32A4.69,4.69,0,0,0,28,23.32V4.68A4.69,4.69,0,0,0,23.32,0Z" transform="translate(0 0)"/><path id="Fill-4" class="cls-1" d="M11,18a.85.85,0,0,1-.85-.85V11.17a.85.85,0,0,1,.85-.85H17a.85.85,0,0,1,.85.85v5.94A.85.85,0,0,1,17,18Z" transform="translate(0 0)"/></g></g></g></svg>